<svg xmlns="http://www.w3.org/2000/svg" xmlns:xlink="http://www.w3.org/1999/xlink" viewBox="0 0 354.31 386.59"><defs><style>.cls-1{fill:#f6b381;}.cls-2{fill:#f6906b;}.cls-3{fill:#7fe5b9;}.cls-4{fill:#55d8a3;}.cls-5{fill:#f9fbfc;}.cls-6{fill:url(#Degradado_sin_nombre_9);}.cls-7{fill:#fff;}.cls-8{fill:#cfe3ff;}.cls-12,.cls-9{font-size:10.76px;fill:#606565;font-family:Montserrat-Regular, Montserrat;}.cls-9{letter-spacing:0.02em;}.cls-10{letter-spacing:0.04em;}.cls-11{letter-spacing:0.04em;}.cls-12{letter-spacing:0.06em;}.cls-13{fill:url(#Degradado_sin_nombre_9-2);}.cls-14{fill:#0cf;}.cls-15{fill:#e3e3e6;}.cls-16{fill:#f1e8e1;}.cls-17{fill:#ddd3d2;}.cls-18{fill:#393c63;}.cls-19{fill:#2f2d4f;}</style><linearGradient id="Degradado_sin_nombre_9" x1="186.32" y1="62.98" x2="166.02" y2="96.82" gradientUnits="userSpaceOnUse"><stop offset="0" stop-color="#55d8a3"/><stop offset="0.26" stop-color="#75d5b1"/><stop offset="0.55" stop-color="#9ed2c2"/></linearGradient><linearGradient id="Degradado_sin_nombre_9-2" x1="183.71" y1="163.39" x2="149.71" y2="214.05" xlink:href="#Degradado_sin_nombre_9"/></defs><title>signup_head_1</title><g id="Capa_2" data-name="Capa 2"><g id="Capa_1-2" data-name="Capa 1"><path class="cls-1" d="M32,290.49l8.85-68.42A27.59,27.59,0,0,1,51.48,203.7l43.16-32.94L118,245.08,64.37,304.94Z"/><path class="cls-2" d="M93.61,193.76,63.33,218.9a3.46,3.46,0,0,0-1.16,3.55l10.76,41.94A3.48,3.48,0,0,0,79,265.67l21.61-27.55a3.48,3.48,0,0,0,.15-4.09l-2.09-39.52A3.49,3.49,0,0,0,93.61,193.76Z"/><path class="cls-1" d="M313.45,236.49l-8.85-68.42A27.54,27.54,0,0,0,294,149.7l-43.17-32.94-23.39,74.32,53.67,59.86Z"/><path class="cls-2" d="M251.87,139.76l30.28,25.14a3.46,3.46,0,0,1,1.16,3.55l-10.77,41.94a3.47,3.47,0,0,1-6.1,1.28l-21.61-27.55a3.48,3.48,0,0,1-.15-4.09l2.09-39.52A3.49,3.49,0,0,1,251.87,139.76Z"/><rect class="cls-3" x="95.58" width="159.48" height="277.67" rx="25.44"/><path class="cls-4" d="M250.5,10.92A25.39,25.39,0,0,0,229.62,0H121A25.44,25.44,0,0,0,95.58,25.44V152.87C185.51,106.86,230.21,47.16,250.5,10.92Z"/><rect class="cls-5" x="104.44" y="43.67" width="141.76" height="194.61" rx="2.55"/><circle class="cls-4" cx="175.32" cy="255.13" r="8.31" transform="translate(-103.36 389.89) rotate(-81.31)"/><path class="cls-3" d="M189.32,29.9h-28a3.08,3.08,0,0,1-3.09-3.08h0a3.09,3.09,0,0,1,3.09-3.09h28a3.09,3.09,0,0,1,3.09,3.09h0A3.09,3.09,0,0,1,189.32,29.9Z"/><circle class="cls-6" cx="176.17" cy="79.9" r="19.73"/><path class="cls-7" d="M183.93,74.3A7.33,7.33,0,1,1,176.6,67,7.33,7.33,0,0,1,183.93,74.3Z"/><path class="cls-7" d="M164.32,95.59a12,12,0,1,1,24,0s-5.51,4.68-12.17,4.8S164.32,95.59,164.32,95.59Z"/><rect class="cls-8" x="122.16" y="113.83" width="111.12" height="15.54" rx="2.75"/><text class="cls-9" transform="translate(129.66 125.6)">C<tspan class="cls-10" x="8.01" y="0">ORR</tspan><tspan class="cls-11" x="33.9" y="0">E</tspan><tspan class="cls-10" x="41.49" y="0">O</tspan></text><rect class="cls-8" x="122.16" y="135.71" width="111.12" height="15.54" rx="2.75"/><text class="cls-12" transform="translate(129.66 149.49)">*********<tspan class="cls-10" x="43.21" y="0">*</tspan></text><rect class="cls-13" x="148.74" y="172.65" width="47.21" height="15.35" rx="6.52"/><rect class="cls-14" x="148.74" y="198.65" width="47.21" height="15.35" rx="6.52"/><path class="cls-1" d="M265,280.27l-5.27-16.69a2.86,2.86,0,0,0-1.65-1.78l-19.77-7.9c-18.15-7.26-17.48-35.69-17-43.29a2.83,2.83,0,0,0-1.59-2.74L199,197.77c-7.08-3.45-12.86-12.71-12.86-20.58v0c0-8.24,6.34-12.69,14.09-9.9l52.87,19.07a2.84,2.84,0,0,1,1.47,1.22l27.73,46.54a2.84,2.84,0,0,0,3.33,1.24l23.43-7.75a2.84,2.84,0,0,1,3.67,2.07l10.93,49.16a2.83,2.83,0,0,1-2.77,3.46h-53.2A2.83,2.83,0,0,1,265,280.27Z"/><path class="cls-2" d="M263.91,249.29c-38.54-6.89-28.9-46.8-28.9-46.8l-48.36-21.21c1.53,6.76,6.5,13.63,12.38,16.49l20.74,10.1h0l1.75.86s-.09.81-.18,2.19c0,.11,0,.22,0,.35s0,.41,0,.63,0,.21,0,.32c0,.33,0,.69-.05,1.06v.3q0,.43,0,.9v.46c0,.27,0,.56,0,.85v1.4c0,.19,0,.39,0,.59s0,.62,0,.93,0,.4,0,.6,0,.7.05,1.06c0,.18,0,.35,0,.54,0,.54.07,1.09.11,1.65a.25.25,0,0,0,0,.08c0,.53.08,1.08.14,1.62,0,.19,0,.37.06.56,0,.39.08.79.13,1.19l.09.68.15,1.11c0,.24.08.48.11.72s.13.75.19,1.12.09.47.13.71l.24,1.19c.05.22.09.43.14.65.11.49.23,1,.35,1.47l.09.35c.16.61.33,1.22.51,1.82l.16.49c.14.44.27.87.42,1.3l.24.65c.14.37.28.75.43,1.12s.19.45.28.68.31.71.47,1.06.21.45.32.67.35.7.54,1,.21.41.33.61c.21.39.45.77.68,1.15l.27.45c.34.51.69,1,1.06,1.51.07.1.15.19.23.29.3.39.6.77.93,1.14l.43.47c.27.3.55.59.83.87s.35.33.53.49.57.51.86.75l.58.46c.3.24.62.46.94.68l.6.41c.36.23.74.44,1.11.65l.55.3c.58.29,1.17.57,1.78.82l6.46,2.58.7.28,3.75,1.5,2.44,1,7.66,3.07,5.68,18a2.84,2.84,0,0,0,2.71,2h12.64l-7.51-31.6Z"/><path class="cls-15" d="M194.5,176.76l1.79-3.48a4,4,0,0,1,4.85-1.91l8.92,3.23a4,4,0,0,1,2.18,5.51l-2.57,5a4,4,0,0,1-5.51,1.61L196,182A4,4,0,0,1,194.5,176.76Z"/><rect class="cls-16" x="253.12" y="271.92" width="78.45" height="22.71" rx="6.54" transform="translate(-40.85 49.42) rotate(-9.03)"/><rect class="cls-17" x="253.31" y="274.38" width="47.02" height="22.71" rx="7.8" transform="translate(-41.43 47.01) rotate(-9.03)"/><polygon class="cls-18" points="354.31 386.59 336.99 280.7 247.74 294.89 262.82 386.59 354.31 386.59"/><path class="cls-19" d="M317.38,386.59l-13.89-84.31A16.06,16.06,0,0,0,285.11,289l-37.37,5.94,15.08,91.7Z"/><path class="cls-1" d="M80.47,334.27l5.27-16.69a2.86,2.86,0,0,1,1.65-1.78l19.76-7.9c18.15-7.26,17.49-35.69,17-43.29a2.83,2.83,0,0,1,1.59-2.74l20.74-10.1c7.07-3.45,12.86-12.71,12.86-20.58v0c0-8.24-6.34-12.69-14.09-9.9L92.35,240.32a2.81,2.81,0,0,0-1.47,1.22L63.15,288.08a2.84,2.84,0,0,1-3.33,1.24l-23.44-7.75a2.83,2.83,0,0,0-3.66,2.07L21.78,332.8a2.85,2.85,0,0,0,2.78,3.46h53.2A2.84,2.84,0,0,0,80.47,334.27Z"/><path class="cls-2" d="M81.57,303.29c38.53-6.89,28.9-46.8,28.9-46.8l48.35-21.21c-1.52,6.76-6.5,13.63-12.37,16.49l-20.74,10.1h0l-1.75.86s.09.81.18,2.19c0,.11,0,.22,0,.35s0,.41,0,.63,0,.21,0,.32c0,.33,0,.69,0,1.06,0,.1,0,.21,0,.3l0,.9v.46c0,.27,0,.56,0,.85v1.4c0,.19,0,.39,0,.59s0,.62,0,.93,0,.4,0,.6,0,.7,0,1.06c0,.18,0,.35,0,.54,0,.54-.07,1.09-.11,1.65,0,0,0,.05,0,.08,0,.53-.09,1.08-.14,1.62l-.06.56c0,.39-.08.79-.13,1.19l-.09.68-.15,1.11-.12.72c-.05.37-.12.75-.19,1.12l-.12.71c-.08.4-.16.8-.25,1.19,0,.22-.08.43-.13.65q-.17.74-.36,1.47c0,.12,0,.24-.08.35-.16.61-.33,1.22-.51,1.82l-.16.49c-.14.44-.28.87-.43,1.3-.07.22-.15.43-.23.65-.14.37-.28.75-.43,1.12s-.19.45-.28.68-.31.71-.47,1.06-.21.45-.32.67-.35.7-.54,1.05c-.11.2-.21.41-.33.61-.22.39-.45.77-.68,1.15-.1.15-.18.3-.28.45-.33.51-.68,1-1,1.51-.07.1-.15.19-.23.29q-.45.58-.93,1.14l-.43.47q-.41.45-.84.87l-.52.49c-.28.26-.57.51-.86.75l-.58.46c-.31.24-.62.46-1,.68s-.39.28-.6.41c-.36.23-.73.44-1.11.65l-.55.3c-.57.29-1.16.57-1.78.82l-6.45,2.58-.7.28-3.75,1.5-2.44,1-7.67,3.07-5.67,18a2.85,2.85,0,0,1-2.71,2H65.12l7.5-31.6Z"/><path class="cls-15" d="M151,230.76l-1.79-3.48a4,4,0,0,0-4.86-1.91l-8.92,3.23a4,4,0,0,0-2.17,5.51l2.57,5a3.94,3.94,0,0,0,5.5,1.61l8.15-4.77A4,4,0,0,0,151,230.76Z"/><rect class="cls-16" x="13.91" y="325.92" width="78.45" height="22.71" rx="6.54" transform="translate(52.66 678.7) rotate(-170.97)"/><rect class="cls-17" x="45.14" y="328.38" width="47.02" height="22.71" rx="7.8" transform="translate(83.11 686.04) rotate(-170.97)"/><polygon class="cls-18" points="91.54 386.59 97.74 348.89 8.49 334.7 0 386.59 91.54 386.59"/><path class="cls-19" d="M91.54,386.59l6.2-37.7L60.36,343A16.05,16.05,0,0,0,42,356.28l-5,30.31Z"/></g></g></svg>