<?xml version="1.0" encoding="utf-8"?>
<!-- Generator: Adobe Illustrator 24.0.1, SVG Export Plug-In . SVG Version: 6.00 Build 0)  -->
<svg version="1.1" id="Capa_1" xmlns="http://www.w3.org/2000/svg" xmlns:xlink="http://www.w3.org/1999/xlink" x="0px" y="0px"
	 viewBox="0 0 70.3 52.4" style="enable-background:new 0 0 70.3 52.4;" xml:space="preserve">
<style type="text/css">
	.st0{fill:#1EA8E0;}
	.st1{fill:#42210B;}
	.st2{fill:none;stroke:#42210B;stroke-width:4.6;stroke-linecap:round;stroke-linejoin:round;}
	.st3{fill:none;stroke:#FFFFFF;stroke-width:8;stroke-linecap:round;stroke-linejoin:round;}
	.st4{fill:none;stroke:#FFFFFF;stroke-width:3;stroke-linecap:round;stroke-linejoin:round;}
</style>
<title>card_</title>
<g id="Capa_2_1_">
	<g id="Layer_1">
		<path class="st0" d="M9.8,2.3h50.9c4.1,0,7.5,3.3,7.5,7.4v32.9c0,4.1-3.3,7.5-7.5,7.5H9.8c-4.1,0-7.4-3.3-7.4-7.5V9.7
			C2.3,5.6,5.6,2.3,9.8,2.3z"/>
		<path class="st1" d="M4.6,9.7c0-2.8,2.3-5.2,5.2-5.2h50.9c2.8,0,5.1,2.3,5.1,5.1l0,0v32.9c0,2.8-2.3,5.1-5.1,5.2H9.8
			c-2.8,0-5.1-2.3-5.2-5.2L4.6,9.7 M0,9.7v32.9c0,5.4,4.4,9.7,9.8,9.8h50.9c5.4,0,9.7-4.4,9.7-9.8V9.7C70.3,4.4,66,0,60.6,0H9.8
			C4.4,0,0,4.4,0,9.7z"/>
		<line class="st2" x1="57.2" y1="15.6" x2="11.8" y2="15.6"/>
		<line class="st3" x1="52.7" y1="39.2" x2="15.6" y2="39.2"/>
		<line class="st4" x1="56.1" y1="22.2" x2="41.2" y2="22.2"/>
	</g>
</g>
</svg>
