<?xml version="1.0" encoding="utf-8"?>
<!-- Generator: Adobe Illustrator 24.0.1, SVG Export Plug-In . SVG Version: 6.00 Build 0)  -->
<svg version="1.1" id="Capa_1" xmlns="http://www.w3.org/2000/svg" xmlns:xlink="http://www.w3.org/1999/xlink" x="0px" y="0px"
	 viewBox="0 0 73.1 75" style="enable-background:new 0 0 73.1 75;" xml:space="preserve">
<style type="text/css">
	.st0{fill:none;stroke:#42210B;stroke-width:4.6;stroke-linejoin:round;}
	.st1{fill:none;stroke:#42210B;stroke-width:4.6;stroke-linecap:round;stroke-linejoin:round;}
	.st2{fill:#1EA8E0;stroke:#42210B;stroke-width:4.6;stroke-linejoin:round;}
	.st3{fill:none;stroke:#FFFFFF;stroke-width:4.6;stroke-linecap:round;stroke-linejoin:round;}
</style>
<title>cart_</title>
<g id="Capa_2_1_">
	<g id="Layer_1">
		<path class="st0" d="M37.8,66.4c0,3.5-2.8,6.4-6.4,6.4c-3.5,0-6.4-2.8-6.4-6.4s2.8-6.4,6.4-6.4l0,0C34.9,60,37.7,62.8,37.8,66.4z"
			/>
		<path class="st0" d="M63.2,66.4c0,3.5-2.8,6.4-6.4,6.4c-3.5,0-6.4-2.8-6.4-6.4c0-3.5,2.8-6.4,6.4-6.4l0,0
			C60.3,60,63.2,62.8,63.2,66.4z"/>
		<polyline class="st1" points="2.3,2.3 15.4,2.3 25,46.1 20.5,52.5 70,52.5 		"/>
		<polygon class="st2" points="70.8,37.2 24.3,41 17.4,6.1 70.8,6.1 		"/>
		<line class="st3" x1="29.3" y1="15.5" x2="60.3" y2="15.5"/>
	</g>
</g>
</svg>
