<svg xmlns="http://www.w3.org/2000/svg" viewBox="0 0 910.52 251.05"><defs><style>.cls-1{fill:none;stroke:#a9a9a9;stroke-miterlimit:10;}</style></defs><title>costarica</title><g id="Capa_2" data-name="Capa 2"><g id="Capa_2-2" data-name="Capa 2"><line class="cls-1" y1="218.19" x2="910.52" y2="218.19"/><rect class="cls-1" x="17.99" y="110.35" width="70.39" height="107.84"/><rect class="cls-1" x="25.61" y="117.1" width="14.54" height="10.3"/><rect class="cls-1" x="45.61" y="117.1" width="14.54" height="10.3"/><rect class="cls-1" x="65.61" y="117.1" width="14.54" height="10.3"/><rect class="cls-1" x="65.61" y="117.1" width="14.54" height="10.3"/><rect class="cls-1" x="25.61" y="131.1" width="14.54" height="10.3"/><rect class="cls-1" x="45.61" y="131.1" width="14.54" height="10.3"/><rect class="cls-1" x="65.61" y="131.1" width="14.54" height="10.3"/><rect class="cls-1" x="25.61" y="145.1" width="14.54" height="10.3"/><rect class="cls-1" x="45.61" y="145.1" width="14.54" height="10.3"/><rect class="cls-1" x="65.61" y="145.1" width="14.54" height="10.3"/><rect class="cls-1" x="25.61" y="159.1" width="14.54" height="10.3"/><rect class="cls-1" x="45.61" y="159.1" width="14.54" height="10.3"/><rect class="cls-1" x="65.61" y="159.1" width="14.54" height="10.3"/><rect class="cls-1" x="25.61" y="172.1" width="14.54" height="10.3"/><rect class="cls-1" x="45.61" y="172.1" width="14.54" height="10.3"/><rect class="cls-1" x="65.61" y="172.1" width="14.54" height="10.3"/><rect class="cls-1" x="25.61" y="185.1" width="14.54" height="10.3"/><rect class="cls-1" x="31.89" y="200.6" width="19.39" height="17.59"/><rect class="cls-1" x="56.89" y="200.6" width="19.39" height="17.59"/><rect class="cls-1" x="45.61" y="185.1" width="14.54" height="10.3"/><rect class="cls-1" x="65.61" y="185.1" width="14.54" height="10.3"/><rect class="cls-1" x="23.03" y="96.05" width="59.69" height="14.3"/><line class="cls-1" x1="31.89" y1="103.2" x2="72.88" y2="103.2"/><rect class="cls-1" x="86.95" y="72.65" width="50.68" height="145.53"/><line class="cls-1" x1="99.03" y1="84.49" x2="126.62" y2="84.49"/><line class="cls-1" x1="99.03" y1="98.49" x2="126.62" y2="98.49"/><line class="cls-1" x1="99.03" y1="112.49" x2="126.62" y2="112.49"/><line class="cls-1" x1="99.03" y1="125.49" x2="126.62" y2="125.49"/><line class="cls-1" x1="99.03" y1="139.49" x2="126.62" y2="139.49"/><line class="cls-1" x1="99.03" y1="152.49" x2="126.62" y2="152.49"/><line class="cls-1" x1="99.03" y1="166.49" x2="126.62" y2="166.49"/><line class="cls-1" x1="99.03" y1="179.49" x2="126.62" y2="179.49"/><line class="cls-1" x1="99.03" y1="193.49" x2="126.62" y2="193.49"/><rect class="cls-1" x="102.12" y="202.74" width="21.12" height="15.44"/><rect class="cls-1" x="86.95" y="65.16" width="50.68" height="7.5"/><line class="cls-1" x1="99.78" y1="45.63" x2="99.78" y2="65.16"/><circle class="cls-1" cx="152.8" cy="158.43" r="21.94"/><line class="cls-1" x1="152.8" y1="152.49" x2="152.8" y2="218.19"/><polyline class="cls-1" points="143.89 160.51 152.8 173.27 162.47 161.64"/><path class="cls-1" d="M191.5,155.69a14.45,14.45,0,1,1-28.9,0s-1-17.33,14.45-34.6C177.05,121.09,191.63,137.55,191.5,155.69Z"/><line class="cls-1" x1="177.04" y1="136.49" x2="177.04" y2="218.19"/><line class="cls-1" x1="185.56" y1="148.12" x2="177.04" y2="159.38"/><path class="cls-1" d="M60.15,64a8.51,8.51,0,0,1-8.5,8.5H31.59a8.56,8.56,0,1,1,3.56-16.34A9.76,9.76,0,0,1,54,55.86,8.51,8.51,0,0,1,60.15,64Z"/><path class="cls-1" d="M219.42,71.31a8.51,8.51,0,0,1-8.5,8.5H190.86a8.56,8.56,0,1,1,3.56-16.34,9.76,9.76,0,0,1,18.89-.32A8.51,8.51,0,0,1,219.42,71.31Z"/><path class="cls-1" d="M587.26,81.7a8.51,8.51,0,0,1-8.5,8.5H558.7a8.56,8.56,0,1,1,3.56-16.34,9.76,9.76,0,0,1,18.89-.32A8.51,8.51,0,0,1,587.26,81.7Z"/><path class="cls-1" d="M864.06,114.45a6,6,0,0,1-5.94,6h-14a6,6,0,0,1,0-12,5.93,5.93,0,0,1,2.49.55,6.82,6.82,0,0,1,13.21-.22A5.94,5.94,0,0,1,864.06,114.45Z"/><path class="cls-1" d="M195.78,208.43a9.77,9.77,0,0,1-9.76,9.76H163a9.83,9.83,0,0,1,0-19.65,9.67,9.67,0,0,1,4.09.9,11.19,11.19,0,0,1,21.67-.37A9.75,9.75,0,0,1,195.78,208.43Z"/><path class="cls-1" d="M205.82,212.81a5.38,5.38,0,0,1-5.37,5.38h-12.7a5.42,5.42,0,0,1,0-10.83,5.33,5.33,0,0,1,2.26.49,6.17,6.17,0,0,1,12-.2A5.37,5.37,0,0,1,205.82,212.81Z"/><path class="cls-1" d="M169.68,23.45A12.75,12.75,0,0,1,157,36.19H126.89a12.83,12.83,0,1,1,5.34-24.48,14.61,14.61,0,0,1,28.3-.48A12.75,12.75,0,0,1,169.68,23.45Z"/><path class="cls-1" d="M667,60.5a12.75,12.75,0,0,1-12.74,12.74h-30a12.83,12.83,0,1,1,5.33-24.48,14.61,14.61,0,0,1,28.3-.48A12.75,12.75,0,0,1,667,60.5Z"/><rect class="cls-1" x="204.52" y="98.49" width="8.26" height="119.7"/><rect class="cls-1" x="212.78" y="98.49" width="12.01" height="119.7"/><rect class="cls-1" x="224.79" y="98.49" width="26.7" height="119.7"/><rect class="cls-1" x="231.47" y="101.65" width="13.37" height="10.08"/><rect class="cls-1" x="231.47" y="116.65" width="13.37" height="10.08"/><rect class="cls-1" x="231.47" y="131.65" width="13.37" height="10.08"/><rect class="cls-1" x="231.47" y="146.65" width="13.37" height="10.08"/><rect class="cls-1" x="231.47" y="161.65" width="13.37" height="10.08"/><rect class="cls-1" x="231.47" y="176.65" width="13.37" height="10.08"/><rect class="cls-1" x="231.47" y="191.65" width="13.37" height="10.08"/><rect class="cls-1" x="230.01" y="205.91" width="8.34" height="12.28"/><rect class="cls-1" x="238.34" y="205.91" width="8.34" height="12.28"/><rect class="cls-1" x="251.49" y="72.49" width="54.48" height="145.7"/><rect class="cls-1" x="256.98" y="78.29" width="43.64" height="11.26"/><rect class="cls-1" x="256.98" y="95.29" width="43.64" height="11.26"/><rect class="cls-1" x="256.98" y="112.29" width="43.64" height="11.26"/><rect class="cls-1" x="256.98" y="129.29" width="43.64" height="11.26"/><rect class="cls-1" x="256.98" y="147.29" width="43.64" height="11.26"/><rect class="cls-1" x="256.98" y="164.29" width="43.64" height="11.26"/><rect class="cls-1" x="256.98" y="182.29" width="43.64" height="11.26"/><rect class="cls-1" x="256.98" y="199.29" width="43.64" height="11.26"/><polygon class="cls-1" points="305.97 218.19 341.45 218.19 341.45 41.13 305.97 65.13 305.97 218.19"/><line class="cls-1" x1="313.86" y1="72.49" x2="313.86" y2="146.65"/><line class="cls-1" x1="323.71" y1="64.78" x2="323.71" y2="174.02"/><line class="cls-1" x1="332.16" y1="57.46" x2="332.16" y2="199.29"/><polyline class="cls-1" points="353.46 163.73 381.63 93.74 385.04 97.58 395.29 93.74 395.29 100.57 402.54 93.74 408.94 98.01 411.93 93.74 429 128.74"/><polyline class="cls-1" points="470.4 144.53 437.54 109.96 425.32 121.19"/><line class="cls-1" x1="389.14" y1="74.08" x2="393.41" y2="84.5"/><line class="cls-1" x1="404.06" y1="84.5" x2="407.61" y2="74.08"/><line class="cls-1" x1="405.84" y1="102.49" x2="411.64" y2="115.98"/><line class="cls-1" x1="399.09" y1="102.49" x2="396.96" y2="109.96"/><line class="cls-1" x1="391.28" y1="102.49" x2="385.83" y2="115.98"/><line class="cls-1" x1="399.09" y1="112.91" x2="405.84" y2="128.74"/><path class="cls-1" d="M426.82,163.51a12.55,12.55,0,0,1-25.1,0s-.87-15,12.55-30C414.27,133.47,426.93,147.76,426.82,163.51Z"/><line class="cls-1" x1="414.26" y1="146.84" x2="414.26" y2="217.77"/><polyline class="cls-1" points="407.05 154.76 414.26 167.72 421.65 156.94"/><path class="cls-1" d="M447.72,185.94a9.45,9.45,0,1,1-18.89,0s-.66-11.33,9.44-22.61C438.27,163.33,447.8,174.09,447.72,185.94Z"/><line class="cls-1" x1="438.26" y1="175.65" x2="438.26" y2="217.77"/><polyline class="cls-1" points="432.84 179.36 438.27 189.11 443.83 180.99"/><path class="cls-1" d="M391,208.46A9.58,9.58,0,0,0,400.6,218h22.59a9.65,9.65,0,1,0-4-18.41,11,11,0,0,0-21.27-.36A9.59,9.59,0,0,0,391,208.46Z"/><path class="cls-1" d="M591.39,213.2a5,5,0,0,0,5,5h11.73a5,5,0,1,0-2.08-9.56,5.71,5.71,0,0,0-11-.19A5,5,0,0,0,591.39,213.2Z"/><path class="cls-1" d="M390.2,193.25a18.71,18.71,0,0,1-32.45,0Z"/><line class="cls-1" x1="390.28" y1="193.25" x2="357.83" y2="193.25"/><path class="cls-1" d="M363.14,218.2a12.59,12.59,0,0,1,21.84,0Z"/><line class="cls-1" x1="363.32" y1="218.2" x2="385.16" y2="218.2"/><line class="cls-1" x1="370.75" y1="212.33" x2="370.75" y2="202.36"/><line class="cls-1" x1="377.37" y1="212.33" x2="377.37" y2="202.33"/><line class="cls-1" x1="373.98" y1="193.25" x2="373.98" y2="177.21"/><path class="cls-1" d="M389.84,181.65v-4.38a7.93,7.93,0,1,0-15.86,0"/><path class="cls-1" d="M357.83,182.13l.28-4.86a7.94,7.94,0,0,1,15.87,0"/><path class="cls-1" d="M362.58,189.45s1.54-8.57,4.81-4.8c0,0,1.67,1.23,1.67,8.6"/><path class="cls-1" d="M384.06,189.45s-1.54-8.57-4.81-4.8c0,0-1.67,1.23-1.67,8.6"/><circle class="cls-1" cx="344.89" cy="247.03" r="3.52"/><circle class="cls-1" cx="455.11" cy="229.48" r="5.39"/><line class="cls-1" x1="441.04" y1="236.19" x2="349.54" y2="236.19"/><circle class="cls-1" cx="725.98" cy="213.61" r="3.52"/><circle class="cls-1" cx="615.76" cy="231.16" r="5.39"/><line class="cls-1" x1="629.83" y1="224.45" x2="721.34" y2="224.45"/><path class="cls-1" d="M545.52,154.77s-27.52,7-52.29-11.88a6.8,6.8,0,0,1-2.5-7.15c1.25-4.62,4.5-11.1,12.92-10.7a6.64,6.64,0,0,0,6.66-4.68c1.95-6.42,7.08-15.33,20.23-10.5a6.84,6.84,0,0,0,7.21-1.67c4-4.16,11.58-9.42,18.57-.82a6.79,6.79,0,0,0,6.34,2.38c2.6-.41,5.86-.18,7.75,2.74a6.69,6.69,0,0,0,6.85,3.14c3.27-.66,7.34.3,10.15,7.17a6.77,6.77,0,0,0,5.93,4.11c4.89.3,12,3,11.92,16.1-.07,14.59-13,12.55-20,10.39a4.75,4.75,0,0,0-5.77,2.54c-2.22,4.88-8.31,10.37-19.42,5.2"/><path class="cls-1" d="M517.6,137.1s17.73-3.38,27,10.13c0,0,15.48-4.78,15.48,7"/><path class="cls-1" d="M533.69,131.76a40.6,40.6,0,0,0,23.65,0"/><line class="cls-1" x1="546.6" y1="218.19" x2="546.6" y2="133.52"/><path class="cls-1" d="M577.29,142s-11.27-1.22-17.18,12.29v63.92"/><path class="cls-1" d="M510.25,210.63a7.58,7.58,0,0,1-7.57,7.56H466.62a7.57,7.57,0,0,1,0-15.13H467a7.57,7.57,0,0,1,7.53-6.77,7.39,7.39,0,0,1,3,.62,7.56,7.56,0,0,1,14.32,0,7.43,7.43,0,0,1,3-.62,7.56,7.56,0,0,1,7.53,6.77h.36A7.57,7.57,0,0,1,510.25,210.63Z"/><rect class="cls-1" x="689.72" y="195.39" width="7.92" height="22.81"/><path class="cls-1" d="M713.13,131.15H706a4.54,4.54,0,0,0-2.19.58c-2.8,1.59-10.16,6.11-10.16,9.84v53.82"/><path class="cls-1" d="M674.1,131.21h7.1a4.46,4.46,0,0,1,2.2.58c2.8,1.59,10.16,6.11,10.16,9.83v53.83"/><circle class="cls-1" cx="675.68" cy="142.3" r="8.16"/><line class="cls-1" x1="683.05" y1="138.83" x2="668.3" y2="138.83"/><circle class="cls-1" cx="711.68" cy="142.3" r="8.16"/><line class="cls-1" x1="719.05" y1="138.83" x2="704.3" y2="138.83"/><line class="cls-1" x1="480.05" y1="138.83" x2="465.3" y2="138.83"/><line class="cls-1" x1="614.84" y1="205.24" x2="664.77" y2="205.24"/><line class="cls-1" x1="614.84" y1="204.24" x2="664.77" y2="204.24"/><line class="cls-1" x1="618.34" y1="195.79" x2="660.52" y2="195.79"/><line class="cls-1" x1="618.34" y1="198.79" x2="660.52" y2="198.79"/><line class="cls-1" x1="618.34" y1="201.79" x2="660.52" y2="201.79"/><line class="cls-1" x1="618.34" y1="192.79" x2="660.52" y2="192.79"/><polyline class="cls-1" points="618.35 205.19 618.35 189.79 660.52 189.79 660.22 205.24"/><polyline class="cls-1" points="620.1 205.24 616.35 210.79 616.35 218.19"/><polyline class="cls-1" points="658.35 205.24 662.1 210.79 662.1 218.19"/><line class="cls-1" x1="616.34" y1="213.26" x2="662.1" y2="213.26"/><rect class="cls-1" x="771.55" y="108.98" width="59.21" height="109.21"/><rect class="cls-1" x="768.16" y="103.57" width="65.3" height="5.41"/><rect class="cls-1" x="813.16" y="113.04" width="12.86" height="101.09"/><rect class="cls-1" x="777.64" y="113.04" width="13.19" height="13.19"/><rect class="cls-1" x="796.64" y="113.04" width="13.19" height="13.19"/><rect class="cls-1" x="777.64" y="130.04" width="13.19" height="13.19"/><rect class="cls-1" x="796.64" y="130.04" width="13.19" height="13.19"/><rect class="cls-1" x="777.64" y="147.04" width="13.19" height="13.19"/><rect class="cls-1" x="796.64" y="147.04" width="13.19" height="13.19"/><rect class="cls-1" x="777.64" y="164.04" width="13.19" height="13.19"/><rect class="cls-1" x="796.64" y="164.04" width="13.19" height="13.19"/><rect class="cls-1" x="777.64" y="181.04" width="13.19" height="13.19"/><rect class="cls-1" x="796.64" y="181.04" width="13.19" height="13.19"/><rect class="cls-1" x="777.64" y="198.04" width="13.19" height="13.19"/><rect class="cls-1" x="796.64" y="198.04" width="13.19" height="13.19"/><line class="cls-1" x1="777.64" y1="214.13" x2="809.83" y2="214.13"/></g></g></svg>