<?xml version="1.0" encoding="utf-8"?>
<!-- Generator: Adobe Illustrator 24.0.1, SVG Export Plug-In . SVG Version: 6.00 Build 0)  -->
<svg version="1.1" id="Capa_1" xmlns="http://www.w3.org/2000/svg" xmlns:xlink="http://www.w3.org/1999/xlink" x="0px" y="0px"
	 viewBox="0 0 86.9 71.1" style="enable-background:new 0 0 86.9 71.1;" xml:space="preserve">
<style type="text/css">
	.st0{fill:#21B1E7;}
	.st1{fill:#42210B;}
	.st2{fill:#FFCB05;stroke:#42210B;stroke-width:4.6;stroke-linejoin:round;}
	.st3{fill:#0095CD;}
	.st4{fill:none;stroke:#42210B;stroke-width:4.6;stroke-linejoin:round;}
	.st5{fill:#1EA8E0;}
	.st6{fill:none;stroke:#FFFFFF;stroke-width:4.6;stroke-linecap:round;stroke-linejoin:round;}
</style>
<title>home_</title>
<g id="Capa_2_1_">
	<g id="Layer_1">
		<path class="st0" d="M22.2,68.8c-5.3,0-9.5-4.3-9.5-9.5V29.7c0-0.7,0.3-1.4,0.9-1.8L42.4,5.3c0.8-0.7,2-0.7,2.8,0l28.2,22.1
			c0.6,0.4,0.9,1.1,0.9,1.8v30.1c0,5.3-4.3,9.5-9.5,9.5H22.2z"/>
		<path class="st1" d="M43.8,7.1L72,29.2v30.1c0,4-3.2,7.2-7.2,7.2H22.2c-4,0-7.2-3.2-7.2-7.2V29.7L43.8,7.1 M43.8,2.5
			c-1,0-2,0.4-2.8,1L12.1,26c-1.1,0.9-1.8,2.2-1.8,3.6v29.6c0,6.5,5.3,11.8,11.8,11.8h42.6c6.5,0,11.8-5.3,11.8-11.8v-30
			c0-1.4-0.6-2.7-1.8-3.6l-28-22.1C45.9,2.8,44.9,2.5,43.8,2.5L43.8,2.5z"/>
		<path class="st2" d="M83.3,33.8L46.7,3.6c-1.8-1.7-4.6-1.7-6.4,0L3.6,33.8c-1.8,1.8-1.7,4.6,0,6.4c1.8,1.8,4.6,1.7,6.4,0l0,0
			l33.5-27.1L77,40.2c1.8,1.7,4.7,1.6,6.3-0.2C84.9,38.2,84.9,35.6,83.3,33.8L83.3,33.8z"/>
		<path class="st0" d="M83.3,33.8L46.7,3.6c-1.8-1.7-4.6-1.7-6.4,0L3.6,33.8c-1.8,1.8-1.7,4.6,0,6.4c1.8,1.8,4.6,1.7,6.4,0l0,0
			l33.5-27.1L77,40.2c1.8,1.7,4.7,1.6,6.3-0.2C84.9,38.2,84.9,35.6,83.3,33.8L83.3,33.8z"/>
		<path class="st3" d="M14.9,32.8c-1.3,0-2.3-1-2.3-2.3V7c0-2.5,2-4.5,4.5-4.5l0,0h2.6c2.5,0,4.5,2,4.5,4.5l0,0v23.4
			c0,1.3-1,2.3-2.3,2.3l0,0L14.9,32.8L14.9,32.8z"/>
		<path class="st1" d="M19.7,4.9c1.2,0,2.2,1,2.2,2.2l0,0v23.4H15V7c0-1.2,1-2.2,2.2-2.2l0,0L19.7,4.9 M19.7,0.3h-2.6
			c-3.7,0-6.8,3-6.8,6.8v23.4c0,2.5,2.1,4.6,4.6,4.6l0,0h6.9c2.5,0,4.6-2.1,4.6-4.6l0,0V7C26.5,3.3,23.4,0.3,19.7,0.3L19.7,0.3z"/>
		<path class="st3" d="M43.2,7.5L14.9,29.7v29.6c0,4,3.2,7.2,7.2,7.2l0,0h21.1C43.2,66.5,43.2,7.5,43.2,7.5z"/>
		<path class="st3" d="M43.2,2.3c-1.1,0-2.2,0.5-3,1.3L3.6,33.8c-1.8,1.8-1.7,4.6,0,6.4c1.8,1.8,4.6,1.7,6.4,0l0,0l33.2-26.9V2.3z"
			/>
		<path class="st4" d="M83.3,33.8L46.7,3.6c-1.8-1.7-4.6-1.7-6.4,0L3.6,33.8c-1.8,1.8-1.7,4.6,0,6.4c1.8,1.8,4.6,1.7,6.4,0l0,0
			l33.5-27.1L77,40.2c1.8,1.7,4.7,1.6,6.3-0.2C84.9,38.2,84.9,35.6,83.3,33.8L83.3,33.8z"/>
		<path class="st5" d="M36.7,68.8c-1.3,0-2.3-1-2.3-2.3l0,0V48.6c0-3.1,2.5-5.6,5.6-5.6l0,0h7c3.1,0,5.6,2.5,5.6,5.6v17.9
			c0,1.3-1,2.3-2.3,2.3l0,0H36.7z"/>
		<path class="st1" d="M47,45.3c1.8,0,3.3,1.4,3.3,3.2l0,0v17.9H36.7V48.6c0-1.8,1.4-3.3,3.2-3.3c0,0,0,0,0.1,0H47 M47,40.7h-7
			c-4.3,0-7.9,3.5-7.9,7.9v17.9c0,2.5,2.1,4.6,4.6,4.6h13.5c2.5,0,4.6-2.1,4.6-4.6V48.6C54.8,44.3,51.3,40.8,47,40.7z"/>
		<line class="st6" x1="63.2" y1="46" x2="63.2" y2="59.7"/>
	</g>
</g>
</svg>
