<svg xmlns="http://www.w3.org/2000/svg" viewBox="0 0 45.27 45"><defs><style>.cls-1{fill:#f8f8f7;}.cls-2,.cls-3{fill:#fff;}.cls-2,.cls-3,.cls-4{stroke:#070308;}.cls-2,.cls-3,.cls-4,.cls-5,.cls-6,.cls-7{stroke-linecap:round;stroke-miterlimit:10;}.cls-2{stroke-width:2px;}.cls-3{stroke-width:0.75px;}.cls-4,.cls-5,.cls-6,.cls-7{fill:none;}.cls-5{stroke:#fff;stroke-width:3px;}.cls-6,.cls-7{stroke:#208a72;}.cls-6{stroke-width:1.5px;}</style></defs><title>servido_</title><g id="Capa_2" data-name="Capa 2"><g id="Capa_1-2" data-name="Capa 1"><circle class="cls-1" cx="22.77" cy="22.5" r="22.5"/><g id="Grupo_171" data-name="Grupo 171"><g id="Grupo_170" data-name="Grupo 170"><g id="Grupo_169" data-name="Grupo 169"><ellipse id="Elipse_14" data-name="Elipse 14" class="cls-2" cx="22.58" cy="22.45" rx="21.58" ry="4.93"/><path id="Trazado_851" data-name="Trazado 851" class="cls-3" d="M3.93,22.68s19.24,6.57,36.83,0"/><path id="Trazado_852" data-name="Trazado 852" class="cls-4" d="M7,25.85a31,31,0,0,0,31.08,0"/><path id="Trazado_856" data-name="Trazado 856" class="cls-5" d="M13.39,8.3c1.21,1.31,5.56,3.74,4.15,6a2.9,2.9,0,0,1-2.23,1c-1.42.2-2.73.91-2.12,2.63a4.19,4.19,0,0,0,1.51,1.72A40,40,0,0,1,18,22.05"/><path id="Trazado_857" data-name="Trazado 857" class="cls-5" d="M24.61,8.3c1.42,1.52,6.58,4.15,3,6.57a5.9,5.9,0,0,1-1.42.71A1.93,1.93,0,0,0,25,18.51a7.3,7.3,0,0,0,1.52,1.62c.91.71,1.92,1.31,2.83,2.12"/><path id="Trazado_858" data-name="Trazado 858" class="cls-5" d="M19.86,9.92c.91,1,4.45,2.73,2,4.45a3.05,3.05,0,0,1-1,.4c-.91.41-1.31,1-.81,1.92a3.5,3.5,0,0,0,1,1.11c.6.51,1.31.91,1.92,1.42"/><path id="Trazado_853" data-name="Trazado 853" class="cls-6" d="M13.39,8.3c1.21,1.31,5.56,3.74,4.15,6a2.9,2.9,0,0,1-2.23,1c-1.42.2-2.73.91-2.12,2.63a4.19,4.19,0,0,0,1.51,1.72A40,40,0,0,1,18,22.05"/><path id="Trazado_854" data-name="Trazado 854" class="cls-6" d="M24.61,8.3c1.42,1.52,6.58,4.15,3,6.57a5.9,5.9,0,0,1-1.42.71A1.93,1.93,0,0,0,25,18.51a7.3,7.3,0,0,0,1.52,1.62c.91.71,1.92,1.31,2.83,2.12"/><path id="Trazado_855" data-name="Trazado 855" class="cls-7" d="M19.86,9.92c.91,1,4.45,2.73,2,4.45a3.05,3.05,0,0,1-1,.4c-.91.41-1.31,1-.81,1.92a3.5,3.5,0,0,0,1,1.11c.6.51,1.31.91,1.92,1.42"/></g></g></g></g></g></svg>