<?xml version="1.0" encoding="utf-8"?>
<!-- Generator: Adobe Illustrator 24.0.1, SVG Export Plug-In . SVG Version: 6.00 Build 0)  -->
<svg version="1.1" id="Capa_1" xmlns="http://www.w3.org/2000/svg" xmlns:xlink="http://www.w3.org/1999/xlink" x="0px" y="0px"
	 viewBox="0 0 55.8 82.6" style="enable-background:new 0 0 55.8 82.6;" xml:space="preserve">
<style type="text/css">
	.st0{fill:#21B1E7;}
	.st1{fill:#42210B;}
	.st2{fill:#0095CD;}
	.st3{fill:none;stroke:#FFFFFF;stroke-width:4.6;stroke-linecap:round;stroke-linejoin:round;}
</style>
<title>user_</title>
<g id="Capa_2_1_">
	<g id="Layer_1">
		<path class="st0" d="M27.9,26.4c-2.5,0-5-1-6.7-2.8c-1.8-1.8-2.8-4.2-2.8-6.8c0-2.5,1-5,2.8-6.7c3.7-3.7,9.8-3.7,13.5,0
			c1.8,1.8,2.8,4.2,2.8,6.7s-1,5-2.8,6.8C32.9,25.4,30.5,26.4,27.9,26.4z"/>
		<path class="st1" d="M27.9,9.6c1.9,0,3.7,0.7,5.1,2.1c1.4,1.3,2.1,3.2,2.1,5.1S34.4,20.6,33,22c-2.8,2.8-7.4,2.8-10.2,0
			c-1.4-1.3-2.1-3.2-2.1-5.1s0.7-3.8,2.1-5.2C24.1,10.3,26,9.6,27.9,9.6 M27.9,5c-3.1,0-6.2,1.2-8.4,3.5c-2.2,2.2-3.5,5.2-3.5,8.4
			c0,3.1,1.2,6.2,3.5,8.4c4.6,4.6,12.1,4.6,16.7,0c2.2-2.2,3.5-5.2,3.5-8.4C39.8,10.3,34.5,5,27.9,5L27.9,5z"/>
		<path class="st2" d="M27.9,9.6c-1.9,0-3.8,0.7-5.1,2.1c-1.4,1.3-2.1,3.2-2.1,5.1s0.7,3.8,2.1,5.2c1.3,1.4,3.2,2.1,5.1,2.1V9.6z"/>
		<path class="st0" d="M28,67.9c-4.5,0.1-8.8-1.7-11.9-4.9c-3.2-3.1-5-7.5-4.9-12c-0.1-4.5,1.7-8.8,4.9-11.9
			c6.6-6.6,17.3-6.6,23.9,0c3.2,3.1,5,7.4,4.9,11.9c0.1,4.5-1.7,8.8-4.9,12C36.9,66.2,32.5,67.9,28,67.9z"/>
		<path class="st1" d="M28,38.2c3.4,0,6.6,1.3,9,3.7s3.8,5.7,3.7,9.1c0.1,3.4-1.3,6.8-3.7,9.2c-5,5-13.1,5-18.1,0
			c-2.4-2.4-3.8-5.7-3.7-9.1c-0.1-3.4,1.3-6.8,3.7-9.2C21.4,39.5,24.6,38.1,28,38.2 M28,30c-5.6,0-10.9,2.2-14.8,6.1
			C9.3,40.1,7,45.4,7.1,51c0,5.6,2.2,10.9,6.1,14.8c8.2,8.1,21.4,8.1,29.7,0c4-3.9,6.2-9.3,6.1-14.8C49,39.4,39.7,30,28,30
			C28.1,30,28.1,30,28,30z"/>
		<path class="st2" d="M28,38.2c-3.4-0.1-6.7,1.3-9.1,3.7s-3.8,5.7-3.7,9.1c-0.1,3.4,1.3,6.8,3.7,9.2S24.6,64,28,64V38.2z"/>
		<line class="st3" x1="29.8" y1="15" x2="28.2" y2="15"/>
		<path class="st3" d="M31.6,42.1c0,0,7.9,5.7,2.9,15.7"/>
	</g>
</g>
</svg>
