<svg xmlns="http://www.w3.org/2000/svg" viewBox="0 0 19.8 19.8"><defs><style>.cls-1,.cls-2{fill:none;stroke:#211915;stroke-linejoin:round;}.cls-1{stroke-linecap:round;}</style></defs><title>cogs_1</title><g id="Capa_2" data-name="Capa 2"><g id="settings-icon"><circle class="cls-1" cx="9.9" cy="9.9" r="3.31"/><path class="cls-2" d="M18.36,7.8H16.7v.06a7.42,7.42,0,0,0-.51-1.28v0l1.18-1.18a1,1,0,0,0,0-1.34L15.73,2.43a1,1,0,0,0-1.34,0L13.22,3.6l0,0A7.73,7.73,0,0,0,12,3.11h0V1.45A1,1,0,0,0,11.07.5H8.74a.94.94,0,0,0-.94,1V3.1h0a6.52,6.52,0,0,0-1.25.5h0L5.42,2.43a1,1,0,0,0-1.34,0L2.43,4.07a1,1,0,0,0,0,1.34L3.6,6.58h0a6.61,6.61,0,0,0-.5,1.23v0H1.45a1,1,0,0,0-.95,1v2.33a1,1,0,0,0,1,.95H3.1v0a6.7,6.7,0,0,0,.5,1.24L2.43,14.38a1,1,0,0,0,0,1.34l1.64,1.65a1,1,0,0,0,1.34,0L6.58,16.2l0,0a7.12,7.12,0,0,0,1.24.53v1.67a1,1,0,0,0,1,.94h2.33a1,1,0,0,0,.95-.94V16.7h-.07a6.83,6.83,0,0,0,1.28-.51h0l1.17,1.18a1,1,0,0,0,1.34,0l1.65-1.65a1,1,0,0,0,0-1.34L16.2,13.22l-.07.06A6.63,6.63,0,0,0,16.69,12v0h1.67a1,1,0,0,0,.94-.95V8.74A.94.94,0,0,0,18.36,7.8Z"/></g></g></svg>