<?xml version="1.0" encoding="utf-8"?>
<!-- Generator: Adobe Illustrator 24.0.1, SVG Export Plug-In . SVG Version: 6.00 Build 0)  -->
<svg version="1.1" id="Capa_1" xmlns="http://www.w3.org/2000/svg" xmlns:xlink="http://www.w3.org/1999/xlink" x="0px" y="0px"
	 viewBox="0 0 81.6 69.1" style="enable-background:new 0 0 81.6 69.1;" xml:space="preserve">
<style type="text/css">
	.st0{fill:#0095CD;}
	.st1{fill:#21B1E7;}
	.st2{fill:#42210B;}
	.st3{fill:none;stroke:#FFFFFF;stroke-width:4.6;stroke-linecap:round;stroke-linejoin:round;}
</style>
<title>heart_</title>
<g id="Capa_2_1_">
	<g id="Layer_1">
		<path class="st0" d="M41.6,12.5c-0.8,0-1.5-0.3-2.1-0.9l-2.3-2.3c-7.5-7.4-19.6-7.4-27.1,0s-7.5,19.6,0,27.1l27.1,27
			c1.1,1.1,2.7,1.7,4.2,1.8L41.6,12.5z"/>
		<path class="st1" d="M40.8,12.3c0.8,0,1.5-0.3,2.1-0.9l2.3-2.3c7.7-7.2,19.8-6.8,27,1c6.9,7.4,6.8,18.7,0,26.1L45,63.3
			c-1.1,1.1-2.7,1.7-4.2,1.9C40.8,65.1,40.8,12.3,40.8,12.3z"/>
		<path class="st2" d="M58.3,4.6C68.6,4.6,77,12.9,77,23.2c0,4.9-2,9.7-5.5,13.2L60.6,47.3L45.1,62.7c-2.4,2.4-6.3,2.4-8.7,0
			L10,36.4C2.7,29.1,2.7,17.3,10,10s19.1-7.3,26.4,0l2.2,2.2c1.1,1.2,3,1.2,4.2,0.1l0.1-0.1l2.2-2.2C48.7,6.6,53.4,4.6,58.3,4.6
			 M58.3,0c-6.2,0-12.1,2.4-16.4,6.8l-1.1,1.1l-1.1-1.1c-9.1-9.1-23.8-9.1-32.9,0s-9.1,23.8,0,32.9L33.2,66c4.2,4.2,11,4.2,15.1,0
			l15.5-15.5l10.9-10.9c9.1-9.1,9.1-23.8,0-32.9C70.4,2.4,64.5,0,58.3,0z"/>
		<path class="st3" d="M69.7,26.3c-0.2-4-2.1-7.8-5.2-10.2c-2.8-2.2-6.4-3.1-9.9-2.4"/>
	</g>
</g>
</svg>
