<svg xmlns="http://www.w3.org/2000/svg" xmlns:xlink="http://www.w3.org/1999/xlink" viewBox="0 0 91.84 87.54"><defs><style>.cls-1{isolation:isolate;}.cls-2{mix-blend-mode:multiply;fill:url(#radial-gradient);}.cls-3{fill:#f3ecdc;}.cls-4{fill:#a9986b;}.cls-10,.cls-5,.cls-7,.cls-8{mix-blend-mode:overlay;}.cls-5{fill:url(#linear-gradient);}.cls-6{fill:#991e11;}.cls-7{fill:url(#linear-gradient-2);}.cls-8{fill:url(#linear-gradient-3);}.cls-9{fill:#c93b28;}.cls-10{opacity:0.5;fill:url(#linear-gradient-4);}.cls-11{font-size:12px;fill:#fff;font-family:ArimaMadurai-Bold, Arima Madurai;font-weight:700;letter-spacing:0.18em;}.cls-12{fill:#9a1f15;}</style><radialGradient id="radial-gradient" cx="92.63" cy="-24.09" r="23.29" gradientTransform="matrix(1.67, -0.74, 0.77, 1.73, -88.54, 154.21)" gradientUnits="userSpaceOnUse"><stop offset="0.82" stop-color="#827e76"/><stop offset="0.84" stop-color="#a3a09a"/><stop offset="0.87" stop-color="#c4c2be"/><stop offset="0.89" stop-color="#dedddb"/><stop offset="0.92" stop-color="#f0f0ef"/><stop offset="0.94" stop-color="#fbfbfb"/><stop offset="0.97" stop-color="#fff"/></radialGradient><linearGradient id="linear-gradient" x1="18.94" y1="68.98" x2="72.9" y2="15.02" gradientTransform="translate(16.35 -12.76) rotate(19.18)" gradientUnits="userSpaceOnUse"><stop offset="0" stop-color="#888"/><stop offset="0.08" stop-color="#969696"/><stop offset="0.22" stop-color="#bcbcbc"/><stop offset="0.24" stop-color="#c2c2c2"/><stop offset="0.34" stop-color="#bebebe"/><stop offset="0.43" stop-color="#b2b2b2"/><stop offset="0.52" stop-color="#9e9e9e"/><stop offset="0.61" stop-color="#838383"/><stop offset="0.7" stop-color="#5f5f5f"/><stop offset="0.75" stop-color="#494949"/><stop offset="0.76" stop-color="#4c4c4c"/><stop offset="0.84" stop-color="#7f7f7f"/><stop offset="0.91" stop-color="#a3a3a3"/><stop offset="0.96" stop-color="#bababa"/><stop offset="1" stop-color="#c2c2c2"/></linearGradient><linearGradient id="linear-gradient-2" x1="6.9" y1="42" x2="84.94" y2="42" gradientUnits="userSpaceOnUse"><stop offset="0" stop-color="#ddcec7"/><stop offset="1" stop-color="#3b3735"/></linearGradient><linearGradient id="linear-gradient-3" x1="0.8" y1="41.24" x2="91.04" y2="41.24" gradientUnits="userSpaceOnUse"><stop offset="0" stop-color="#c2c2c2"/><stop offset="0.04" stop-color="#bababa"/><stop offset="0.09" stop-color="#a3a3a3"/><stop offset="0.16" stop-color="#7f7f7f"/><stop offset="0.24" stop-color="#4c4c4c"/><stop offset="0.25" stop-color="#494949"/><stop offset="0.3" stop-color="#5f5f5f"/><stop offset="0.39" stop-color="#838383"/><stop offset="0.48" stop-color="#9e9e9e"/><stop offset="0.57" stop-color="#b2b2b2"/><stop offset="0.66" stop-color="#bebebe"/><stop offset="0.76" stop-color="#c2c2c2"/><stop offset="0.78" stop-color="#bcbcbc"/><stop offset="0.92" stop-color="#969696"/><stop offset="1" stop-color="#888"/></linearGradient><linearGradient id="linear-gradient-4" x1="0" y1="41.29" x2="91.84" y2="41.29" xlink:href="#linear-gradient-2"/></defs><title>img1</title><g class="cls-1"><g id="Capa_2" data-name="Capa 2"><g id="Layer_1" data-name="Layer 1"><path class="cls-2" d="M86.79,26.46C76.92,4.26,51.49-6,30,3.58S-.95,38.88,8.92,61.08,44.22,93.52,65.72,84,96.66,48.65,86.79,26.46Z"/><path class="cls-3" d="M84.94,42a39,39,0,1,0-39,39A39,39,0,0,0,84.94,42Z"/><circle class="cls-4" cx="45.92" cy="42" r="38.17" transform="translate(-11.25 17.42) rotate(-19.18)"/><circle class="cls-5" cx="45.92" cy="42" r="38.17" transform="translate(-11.25 17.42) rotate(-19.18)"/><path class="cls-3" d="M45.92,77.9A35.9,35.9,0,1,1,81.83,42,35.93,35.93,0,0,1,45.92,77.9Z"/><path class="cls-6" d="M10.68,48.87a35.9,35.9,0,0,0,70.48,0Z"/><path class="cls-7" d="M84.94,42a39,39,0,1,0-39,39A39,39,0,0,0,84.94,42Z"/><path class="cls-3" d="M88.2,54.48a290.8,290.8,0,0,0-84.56,0Q1.83,43,0,31.47a314.08,314.08,0,0,1,91.84,0Q90,43,88.2,54.48Z"/><path class="cls-4" d="M4.19,53.73.8,32A313.63,313.63,0,0,1,91,32L87.65,53.73A291.73,291.73,0,0,0,4.19,53.73Z"/><path class="cls-8" d="M4.19,53.73.8,32A313.63,313.63,0,0,1,91,32L87.65,53.73A291.73,291.73,0,0,0,4.19,53.73Z"/><path class="cls-3" d="M5.58,51.88Q4.19,42.61,2.8,33.35a312.94,312.94,0,0,1,86.24,0q-1.38,9.26-2.77,18.53A293.88,293.88,0,0,0,5.58,51.88Z"/><path class="cls-9" d="M5.85,51.5Q4.53,42.56,3.2,33.62a312.63,312.63,0,0,1,85.44,0Q87.32,42.56,86,51.5A295.43,295.43,0,0,0,5.85,51.5Z"/><path class="cls-10" d="M88.2,54.48a290.8,290.8,0,0,0-84.56,0Q1.83,43,0,31.47a314.08,314.08,0,0,1,91.84,0Q90,43,88.2,54.48Z"/><text class="cls-11" transform="translate(9.77 45.21)">Enlatados</text><path class="cls-12" d="M29.83,18.92l.45,0c.12,2,.18,3.06.31,5.1L30,24c-.12-1.72-.18-2.58-.28-4.29a.75.75,0,0,1-.28.2,1,1,0,0,1-.37.08c0-.16,0-.25,0-.41a1.18,1.18,0,0,0,.48-.23A1,1,0,0,0,29.83,18.92Z"/><path class="cls-12" d="M31.19,20.14a1.77,1.77,0,0,1,.17-1,1,1,0,0,1,.83-.38,1,1,0,0,1,.88.29,1.84,1.84,0,0,1,.28,1c0,1,.07,1.46.12,2.43a2.2,2.2,0,0,1-.16,1.08,1.17,1.17,0,0,1-1.7.09,2.25,2.25,0,0,1-.28-1.06C31.27,21.6,31.24,21.11,31.19,20.14ZM32.72,20c0-.5-.15-.76-.37-.78a.38.38,0,0,0-.15,0,.41.41,0,0,0-.19,0,.36.36,0,0,0-.15.21,1.48,1.48,0,0,0-.05.57c.06,1,.08,1.49.14,2.48v0c0,.44.1.73.22.81a.4.4,0,0,0,.22.06l.18,0a.25.25,0,0,0,.12-.07c.12-.1.17-.38.15-.83v0C32.8,21.52,32.77,21,32.72,20Z"/><path class="cls-12" d="M34,20a1.83,1.83,0,0,1,.18-1,.94.94,0,0,1,.84-.37,1,1,0,0,1,.87.3,1.74,1.74,0,0,1,.26,1l.1,2.44a2.18,2.18,0,0,1-.17,1.08.92.92,0,0,1-.83.4.93.93,0,0,1-.87-.33,2.2,2.2,0,0,1-.26-1.07C34,21.46,34,21,34,20Zm1.53-.1c0-.49-.15-.75-.37-.78H35a.41.41,0,0,0-.19,0c-.06,0-.11.1-.16.21a1.72,1.72,0,0,0,0,.57c0,1,.07,1.49.12,2.48v0c0,.44.09.73.21.81a.33.33,0,0,0,.22.06l.18,0a.17.17,0,0,0,.12-.06c.12-.1.16-.4.16-.83v0Z"/><path class="cls-12" d="M36.91,19.75a1.59,1.59,0,0,1,.17-1,1.15,1.15,0,0,1,1.48,0,1.58,1.58,0,0,1,.23.94c0,.41,0,.61,0,1a1.72,1.72,0,0,1-.18,1,.87.87,0,0,1-.72.29.82.82,0,0,1-.73-.25,1.66,1.66,0,0,1-.25-1C36.93,20.36,36.92,20.16,36.91,19.75Zm1.31-.25a.9.9,0,0,0-.09-.42.31.31,0,0,0-.3-.11.33.33,0,0,0-.3.13.88.88,0,0,0-.07.43l0,1.44a1,1,0,0,0,.09.43.36.36,0,0,0,.31.12.33.33,0,0,0,.29-.14.83.83,0,0,0,.06-.44C38.25,20.37,38.24,20.08,38.22,19.5Zm2.31-1h.52c-.81,2.05-1.21,3.08-2,5.15h-.54C39.31,21.59,39.71,20.56,40.53,18.5Zm.19,2.89a1.68,1.68,0,0,1,.18-1,.87.87,0,0,1,.73-.27.86.86,0,0,1,.74.25,1.63,1.63,0,0,1,.22.94c0,.42,0,.62,0,1a1.68,1.68,0,0,1-.19,1,.83.83,0,0,1-.71.29.91.91,0,0,1-.73-.26,1.74,1.74,0,0,1-.23-1C40.73,22,40.73,21.8,40.72,21.39ZM42,21.16a1,1,0,0,0-.09-.43.35.35,0,0,0-.3-.11.36.36,0,0,0-.3.13.83.83,0,0,0-.07.42c0,.58,0,.87,0,1.44a1,1,0,0,0,.09.44.34.34,0,0,0,.3.12A.32.32,0,0,0,42,23a.81.81,0,0,0,.07-.44C42,22,42,21.74,42,21.16Z"/><path class="cls-12" d="M46.64,18.43h.55c0,2,0,3.06,0,5.1h-.46c-.46-1.4-.7-2.1-1.18-3.5,0,.51,0,.77,0,1.28v2.22H45c0-2,0-3.06,0-5.1h.47c.5,1.39.75,2.08,1.24,3.47,0-.59,0-.89-.06-1.48Z"/><path class="cls-12" d="M48.64,18.45h.76c.33,2.05.49,3.07.81,5.12h-.58c-.06-.39-.08-.59-.14-1h-1l-.15,1H47.8C48.13,21.5,48.3,20.48,48.64,18.45Zm0,3.64h.81c-.15-1.08-.23-1.62-.39-2.7h0C48.85,20.47,48.77,21,48.61,22.09Z"/><path class="cls-12" d="M50.49,18.46l1.77,0c0,.19,0,.3,0,.5l-.55,0-.1,4.61H51c0-1.85,0-2.76.08-4.61h-.59C50.48,18.76,50.49,18.67,50.49,18.46Z"/><path class="cls-12" d="M54.24,18.54l.62,0c0,1.52-.06,2.28-.11,3.79a1.89,1.89,0,0,1-.27,1,.9.9,0,0,1-.81.3.93.93,0,0,1-.8-.34,1.85,1.85,0,0,1-.21-1.05c0-1.52.05-2.28.09-3.79h.63l-.1,3.78a2.1,2.1,0,0,0,0,.61.48.48,0,0,0,.08.16.41.41,0,0,0,.29.12.42.42,0,0,0,.31-.11.6.6,0,0,0,.12-.37c0-.15,0-.29,0-.39C54.17,20.81,54.19,20.06,54.24,18.54Z"/><path class="cls-12" d="M55.71,18.59l1.13,0a1,1,0,0,1,.68.21,1,1,0,0,1,.22.65,5.45,5.45,0,0,1,0,.58,1.79,1.79,0,0,1-.14.66,1.06,1.06,0,0,1-.39.33.76.76,0,0,1,.29.21,1.31,1.31,0,0,1,.12.54,10,10,0,0,1,0,1.11,5.32,5.32,0,0,0,0,.85l-.61,0A12.71,12.71,0,0,1,57,22c0-.36,0-.58-.09-.64a.56.56,0,0,0-.33-.1l-.37,0-.1,2.46-.62,0C55.61,21.65,55.64,20.63,55.71,18.59Zm1.41,1.3c0-.39,0-.62-.08-.68a.49.49,0,0,0-.32-.11h-.4c0,.68,0,1-.06,1.72h.4a.36.36,0,0,0,.27-.06.39.39,0,0,0,.13-.25,3.23,3.23,0,0,0,.06-.59Z"/><path class="cls-12" d="M59.19,18.72l.77,0c.25,2.06.37,3.08.6,5.14l-.58,0-.1-1-1,0-.18,1-.59,0C58.56,21.76,58.77,20.75,59.19,18.72ZM59,22.36l.81,0c-.11-1.08-.17-1.63-.28-2.71h0C59.33,20.76,59.22,21.29,59,22.36Z"/><path class="cls-12" d="M61.49,18.84l.63,0c-.11,1.84-.16,2.76-.28,4.6l1,.06c0,.2,0,.3,0,.49l-1.6-.08Z"/><path class="cls-3" d="M30.17,64.93h2v.69l-1.21,0v2.14l1.13.12c0,.29,0,.43,0,.71l-1.12-.15c0,1.31,0,2,0,3.29l-.75-.21Z"/><path class="cls-3" d="M33.53,64.94h.93c.41,3,.62,4.6,1,7.81l-.72-.14c-.07-.6-.11-.9-.18-1.5l-1.18-.2c-.08.55-.11.82-.18,1.37l-.73-.17C32.91,69.34,33.12,67.9,33.53,64.94Zm0,5.29,1,.15c-.2-1.64-.3-2.45-.49-4h0C33.8,67.91,33.7,68.69,33.5,70.23Z"/><path class="cls-3" d="M36.33,65h1.38a1,1,0,0,1,.84.31,1.82,1.82,0,0,1,.3,1c0,.2,0,.51,0,.94a3.61,3.61,0,0,1-.14,1.07,1.32,1.32,0,0,1-.48.53s.29.16.38.35a3,3,0,0,1,.17.89c0,.41.05,1,0,1.8a7.67,7.67,0,0,0,0,1.39c-.31,0-.46-.06-.77-.1,0-.1,0-1,0-2.78a2.17,2.17,0,0,0-.13-1,.63.63,0,0,0-.42-.18l-.46-.07c0,1.56,0,2.34,0,3.9l-.77-.12C36.3,69.72,36.31,68.13,36.33,65Zm1.77,2a2.29,2.29,0,0,0-.12-1.1.53.53,0,0,0-.4-.16H37.1l0,2.73.49,0a.41.41,0,0,0,.33-.09.69.69,0,0,0,.15-.4,6.84,6.84,0,0,0,.05-1Z"/><path class="cls-3" d="M42.68,65h1c0,3.48,0,5.23,0,8.71l-.7,0c0-1.39,0-2.09,0-3.48s0-2,.07-3.25c-.37,2.68-.55,4-.92,6.66-.28,0-.42,0-.7,0-.37-2.68-.55-4-.9-6.65,0,1.27,0,1.91,0,3.18s0,2,0,3.41l-.68-.07,0-8.43h1c.36,2.8.54,4.22.91,7.07C42.13,69.22,42.32,67.81,42.68,65Z"/><path class="cls-3" d="M46.6,65h2v.85H47.37v2.76l1.14,0v.87l-1.14,0c0,1.7,0,2.55,0,4.25H46.6Z"/><path class="cls-3" d="M49.39,65h1.37a1.05,1.05,0,0,1,.85.31,1.88,1.88,0,0,1,.31,1.06c0,.2,0,.52,0,1a4.29,4.29,0,0,1-.12,1.1,1.52,1.52,0,0,1-.47.59s.29.14.38.32a3.15,3.15,0,0,1,.18.88c0,.41.06,1,.06,1.82a9,9,0,0,0,.07,1.4l-.77.08a28.37,28.37,0,0,1-.08-2.87,2.11,2.11,0,0,0-.14-1,.5.5,0,0,0-.42-.13l-.46,0c0,1.66,0,2.5,0,4.16l-.78,0C49.41,70.15,49.4,68.42,49.39,65ZM51.18,67A2.45,2.45,0,0,0,51,65.91a.47.47,0,0,0-.39-.16h-.49c0,1.16,0,1.74,0,2.9l.5,0a.42.42,0,0,0,.33-.12.85.85,0,0,0,.15-.43c0-.21,0-.54,0-1Z"/><path class="cls-3" d="M52.94,65h2c0,.32,0,.47,0,.79l-1.19,0c0,1.12,0,1.68,0,2.81l1.13-.08v.79l-1.12.09c0,1.2,0,1.8,0,3l1.2-.16c0,.31,0,.47,0,.78-.79.13-1.19.19-2,.29C53,70,53,68.28,52.94,65Z"/><path class="cls-3" d="M55.76,67.4a3.23,3.23,0,0,1-.07-.68,3.11,3.11,0,0,1,.25-1.37,1,1,0,0,1,1-.5,1.08,1.08,0,0,1,1.13,1A6.93,6.93,0,0,1,58.16,67v.44l-.73.05c0-.2,0-.3,0-.51a4.14,4.14,0,0,0-.07-1,.59.59,0,0,0-.16-.33.36.36,0,0,0-.24-.08.43.43,0,0,0-.4.25,1.75,1.75,0,0,0-.12.73,1.61,1.61,0,0,0,.12.69,1.8,1.8,0,0,0,.28.4l.18.21.45.51a3,3,0,0,1,.82,2.06A3.76,3.76,0,0,1,58,72a1.28,1.28,0,0,1-1,.72A.89.89,0,0,1,55.9,72a5.82,5.82,0,0,1-.15-1.36V69.8l.75-.08v.79a4.14,4.14,0,0,0,.12,1.17c.07.21.2.3.38.26a.54.54,0,0,0,.39-.22,1.07,1.07,0,0,0,.12-.49c0-.21,0-.45,0-.71a2,2,0,0,0-.61-1.41l-.43-.47A3,3,0,0,1,55.76,67.4Z"/><path class="cls-3" d="M60.9,64.94h.77V71.5l-.76.21c0-1.31,0-2,0-3.28l-1,.14c0,1.36,0,2.05,0,3.41l-.77.19c0-2.89,0-4.34,0-7.23h.78c0,1.18,0,1.77,0,3l1-.11Z"/></g></g></g></svg>