<?xml version="1.0" encoding="utf-8"?>
<!-- Generator: Adobe Illustrator 24.0.1, SVG Export Plug-In . SVG Version: 6.00 Build 0)  -->
<svg version="1.1" id="Capa_1" xmlns="http://www.w3.org/2000/svg" xmlns:xlink="http://www.w3.org/1999/xlink" x="0px" y="0px"
	 viewBox="0 0 89.9 61.7" style="enable-background:new 0 0 89.9 61.7;" xml:space="preserve">
<style type="text/css">
	.st0{fill:#21B1E7;}
	.st1{fill:#42210B;}
	.st2{fill:#0095CD;}
	.st3{fill:#FFFFFF;stroke:#42210B;stroke-width:4.6;stroke-linecap:round;stroke-linejoin:round;}
	.st4{fill:none;stroke:#42210B;stroke-width:4.6;stroke-linecap:round;stroke-linejoin:round;}
	.st5{fill:none;stroke:#FFFFFF;stroke-width:4.6;stroke-linecap:round;stroke-linejoin:round;}
</style>
<title>truck_</title>
<g id="Capa_2_1_">
	<g id="Layer_1">
		<path class="st0" d="M8.8,52c-1.3,0-2.3-1-2.3-2.3V34.8c0-3.7,1.6-7.2,4.3-9.7l8-7.3c2.7-2.5,6.2-3.8,9.9-3.8h19.9
			c1.3,0,2.3,1,2.3,2.3v33.4c0,1.3-1,2.3-2.3,2.3H8.8z"/>
		<path class="st1" d="M48.5,16.3v33.4H8.8V34.8c0-3,1.3-6,3.5-8l8-7.3c2.3-2.1,5.2-3.2,8.3-3.2H48.5 M48.5,11.7H28.6
			c-4.2,0-8.3,1.6-11.4,4.4l-8,7.3c-3.2,2.9-5,7-5,11.4v15c0,2.5,2.1,4.6,4.6,4.6h39.6c2.5,0,4.6-2,4.6-4.6l0,0V16.3
			C53.1,13.8,51.1,11.7,48.5,11.7L48.5,11.7L48.5,11.7z"/>
		<path class="st2" d="M48.5,49.7H8.8V34.8c0-2,0.6-4,1.7-5.8h38V49.7z"/>
		<path class="st3" d="M34.5,30.6H20c-0.5,0.1-1.1-0.3-1.1-0.8c-0.1-0.4,0.1-0.8,0.5-1l5-4c1.5-1.2,3.3-1.8,5.2-1.8h4.3"/>
		<line class="st4" x1="8.3" y1="52.1" x2="2.3" y2="52.1"/>
		<path class="st2" d="M21.2,59.4c-4.7,0-8.6-3.8-8.6-8.6c0-4.7,3.8-8.6,8.6-8.6c4.7,0,8.6,3.8,8.6,8.5l0,0
			C29.7,55.6,25.9,59.4,21.2,59.4z"/>
		<path class="st1" d="M21.2,44.6c3.5,0,6.3,2.8,6.3,6.2c0,3.5-2.8,6.3-6.2,6.3S15,54.3,15,50.9l0,0C14.9,47.4,17.7,44.6,21.2,44.6
			L21.2,44.6 M21.2,40c-6,0-10.9,4.8-10.9,10.8s4.8,10.9,10.8,10.9S32,56.9,32,50.9l0,0C32,44.9,27.2,40,21.2,40L21.2,40z"/>
		<path class="st0" d="M50.8,52.2c-10.5,0-13.3-0.6-14.5-1.2c-0.8-0.4-1.3-1.2-1.3-2.1V11.4c0-5,4.1-9.1,9.1-9.1h34.5
			c5,0,9.1,4.1,9.1,9.1v31.4c0,5-4.1,9.1-9.1,9.1h-17C61.5,52,56.3,52.2,50.8,52.2L50.8,52.2z"/>
		<path class="st1" d="M78.5,4.6c3.8,0,6.8,3.1,6.8,6.8l0,0v31.4c0,3.8-3.1,6.8-6.8,6.8h-17c0,0-5.1,0.2-10.7,0.2s-11.8-0.2-13.6-1
			V11.4c0-3.8,3-6.8,6.8-6.8L78.5,4.6 M78.5,0H44c-6.3,0-11.4,5.1-11.4,11.4v37.5c0,1.8,1.1,3.4,2.7,4.2c1.6,0.7,4.6,1.4,15.5,1.4
			c5.3,0,10-0.2,10.7-0.2h16.9c6.3,0,11.4-5.1,11.4-11.4V11.4C89.9,5.1,84.8,0,78.5,0z"/>
		<path class="st2" d="M85.3,29v13.9c0,3.8-3.1,6.8-6.8,6.8h-17c0,0-20.8,0.8-24.2-0.8V29H85.3z"/>
		<path class="st5" d="M78.5,22.8v-7.7c0-2.1-1.7-3.8-3.8-3.8H61"/>
		<path class="st2" d="M62.7,59.4c-4.7,0-8.6-3.8-8.6-8.6c0-4.7,3.8-8.6,8.6-8.6c4.7,0,8.6,3.8,8.6,8.6l0,0
			C71.3,55.6,67.4,59.4,62.7,59.4z"/>
		<path class="st1" d="M62.7,44.6c3.5,0,6.3,2.8,6.3,6.2c0,3.5-2.8,6.3-6.2,6.3c-3.5,0-6.3-2.8-6.3-6.2l0,0
			C56.5,47.4,59.3,44.6,62.7,44.6 M62.7,40c-6,0-10.9,4.9-10.9,10.9s4.9,10.9,10.9,10.9s10.9-4.9,10.9-10.9
			C73.6,44.9,68.7,40,62.7,40L62.7,40L62.7,40z"/>
	</g>
</g>
</svg>
